<?xml version="1.0" encoding="utf-8"?>
<!-- Generator: Adobe Illustrator 26.0.0, SVG Export Plug-In . SVG Version: 6.00 Build 0)  -->
<svg version="1.1" id="Layer_1" xmlns="http://www.w3.org/2000/svg" xmlns:xlink="http://www.w3.org/1999/xlink" x="0px" y="0px"
	 viewBox="0 0 65 65" style="enable-background:new 0 0 65 65;" xml:space="preserve">
<style type="text/css">
	.st0{fill-rule:evenodd;clip-rule:evenodd;fill:#FFFFFF;}
	.st1{fill:#FFFFFF;}
</style>
<g id="surface1">
	<path class="st0" d="M24.8,37.5h-1c-0.8,0-1.5-0.4-2-1l-4.7-6.1c-0.1-0.1-0.2-0.3-0.2-0.5s0.1-0.4,0.2-0.5l4.8-6.1
		c0.5-0.6,1.2-1,2-1h10.5l-6,7.5L24,35.4L24.8,37.5z"/>
	<path class="st0" d="M28.5,30L28.5,30L24,35.4c-0.2,0.2-0.3,0.5-0.3,1s0.5,1.1,1.4,1.1h9.2L28.5,30z"/>
	<path class="st0" d="M40.9,16.9l-0.8-2.1h1c0.8,0,1.5,0.4,2,1l4.8,6.1c0.1,0.1,0.2,0.3,0.2,0.5s-0.1,0.4-0.2,0.5L43.1,29
		c-0.5,0.6-1.2,1-2,1H30.6l6-7.5L40.9,16.9z"/>
	<path class="st0" d="M36.5,22.4L36.5,22.4l4.4-5.4c0.2-0.2,0.3-0.5,0.3-1c0-0.5-0.5-1.1-1.4-1.1h-9.2L36.5,22.4z"/>
	<path class="st1" d="M41.2,16.8c0.2-0.2,0.3-0.5,0.3-0.8c0-0.7-0.6-1.3-1.3-1.3h-0.3c0.7,0,1.2,0.6,1.2,1.3c0,0.3-0.1,0.6-0.3,0.8
		l-4.3,5.5l-5.9,7.6L41.2,16.8z"/>
	<path class="st1" d="M23.8,35.5c-0.2,0.2-0.3,0.5-0.3,0.8c0,0.7,0.6,1.3,1.3,1.3h0.3c-0.7,0-1.3-0.6-1.3-1.3c0-0.3,0.1-0.6,0.3-0.8
		l4.3-5.5l5.9-7.6L23.8,35.5z"/>
	<path class="st1" d="M31.3,42.1c-0.4,0-0.7,0.1-1,0.2c-0.5,0.2-0.9,0.4-1.2,0.8c-0.5,0.7-0.5,1.5-0.5,1.5v5.6H30
		c0.1,0,0.2-0.1,0.2-0.2v-5.3c0-0.1,0-0.5,0.2-0.7c0.2-0.1,0.4-0.2,0.6-0.2c0.2,0,0.5,0,0.6,0c0,0,0,0,0,0c0.1,0,0.2-0.1,0.2-0.1
		l0.8-1.3C32.2,42.2,31.7,42.1,31.3,42.1"/>
	<path class="st1" d="M26.9,42.1c-0.4,0-0.7,0.1-1.1,0.2c-0.5,0.2-0.9,0.4-1.2,0.8c-0.5,0.7-0.5,1.5-0.5,1.5v5.6h1.5
		c0.1,0,0.2-0.1,0.2-0.2v-5.3c0-0.1,0-0.5,0.2-0.7c0.2-0.1,0.4-0.2,0.6-0.2c0.2,0,0.5,0,0.6,0c0,0,0,0,0,0c0.1,0,0.2-0.1,0.2-0.1
		l0.8-1.3C27.8,42.2,27.4,42.1,26.9,42.1"/>
	<path class="st1" d="M13.9,48.1C13.9,48,13.8,48,13.7,48c-0.1,0-0.1,0-0.1,0c-0.5,0.3-1.1,0.5-1.7,0.5c-1.9,0-3.4-1.5-3.4-3.4
		c0-1.9,1.5-3.4,3.4-3.4c0.6,0,1.2,0.2,1.7,0.5c0,0,0.1,0.1,0.2,0.1c0.1,0,0.2-0.1,0.2-0.1l0.9-1.1c-0.8-0.6-1.9-1-3-1
		c-2.8,0-5.1,2.3-5.1,5.1c0,2.8,2.3,5.1,5.1,5.1c1.1,0,2.1-0.4,3-1L13.9,48.1z"/>
	<path class="st1" d="M36.4,43.6c1.1,0,2,0.7,2.4,1.7h-4.7C34.4,44.3,35.4,43.6,36.4,43.6 M36.4,42c-2.2,0-4.1,1.8-4.1,4.1
		c0,2.2,1.8,4.1,4.1,4.1c0,0,0.1,0,0.1,0c0.9,0,1.6-0.1,2.6-0.7l0.1-0.1c0,0-0.8-1.1-0.8-1.1c-0.1-0.1-0.2-0.1-0.2-0.1
		c-0.1,0-0.1,0-0.1,0c-0.2,0.1-0.9,0.4-1.6,0.4c-1.1,0-2-0.7-2.4-1.7h6.2c0.1,0,0.2-0.1,0.2-0.2l0-0.5c0-0.1,0-0.1,0-0.2
		C40.5,43.8,38.7,42,36.4,42z"/>
	<path class="st1" d="M41.7,50.2c-0.1,0-0.2-0.1-0.2-0.2v-7.6c0-0.1,0.1-0.2,0.2-0.2H43c0.1,0,0.2,0.1,0.2,0.2V50
		c0,0.1-0.1,0.2-0.2,0.2H41.7z"/>
	<path class="st1" d="M19.2,43.6c-1.4,0-2.5,1.1-2.5,2.5c0,1.4,1.1,2.5,2.5,2.5c1.4,0,2.5-1.1,2.5-2.5
		C21.6,44.7,20.5,43.6,19.2,43.6 M19.2,50.2c-2.3,0-4.1-1.9-4.1-4.1s1.8-4.1,4.1-4.1c2.3,0,4.1,1.9,4.1,4.1
		C23.3,48.3,21.5,50.2,19.2,50.2z"/>
	<path class="st1" d="M48.1,43.6c-1.3,0-2.4,1.1-2.4,2.4c0,1.4,1.1,2.4,2.4,2.4c1.4,0,2.4-1.1,2.4-2.4
		C50.5,44.7,49.4,43.6,48.1,43.6 M48.1,50.2c-2.3,0-4.1-1.8-4.1-4.1s1.8-4.1,4.1-4.1s4.1,1.8,4.1,4.1S50.3,50.2,48.1,50.2z"/>
	<path class="st1" d="M56.8,45.4c-0.3-0.1-0.6-0.2-1-0.3c-0.6-0.1-1.1-0.2-1.3-0.5c-0.2-0.3-0.1-0.6,0.2-0.8c0.6-0.4,1.4-0.2,1.8,0
		c0.1,0,0.4,0.2,0.4,0.2c0.1,0,0.1,0.1,0.1,0.1c0.1,0,0.2-0.1,0.2-0.1l0.8-1.1l-0.1-0.1c-0.1-0.1-0.2-0.1-0.3-0.2
		c-0.2-0.1-1-0.6-2.1-0.6c0,0-0.1,0-0.1,0c-2.4,0.1-2.7,1.7-2.7,2.3c0,0.9,0.5,1.6,1.2,1.9c0.6,0.3,1.6,0.5,2.1,0.7
		c0.3,0.1,0.5,0.3,0.6,0.5c0,0.1,0.1,0.2,0.1,0.3c0,0.3-0.1,0.7-0.6,0.8c-0.5,0.2-1.3,0.1-2-0.5c0,0-0.1-0.1-0.1-0.1
		c0,0-0.1,0-0.1,0c-0.1,0-0.2,0.1-0.2,0.1c0,0-0.8,1.1-0.8,1.1s0.3,0.2,0.4,0.3c0.5,0.4,1.3,0.8,2.4,0.8h0c2.3,0,2.8-1.6,2.8-2.5
		S57.7,45.8,56.8,45.4"/>
</g>
</svg>
