<svg xmlns="http://www.w3.org/2000/svg" width="445.92" height="191.15" viewBox="0 0 445.92 191.15"><title>Marca</title><path d="M123.21,152.48c-5.68-5.5-7.9-13.8-9.28-21.35-.81-4.41-1.09-8.94-2.31-13.27a39.2,39.2,0,0,1-1.5-13.71A98.45,98.45,0,0,1,112.35,91c.66-3.1,1.6-6.36.75-9.51a10.86,10.86,0,0,0-3-4.71,8.45,8.45,0,0,1-1.81-4.34A33.19,33.19,0,0,0,107,67.28c-.82-2.2-1.71-4.37-2.61-6.53-1-2.32-2-4.61-2.92-7-.66-1.7-.8-3.38,1-4.37s3.33-.21,4.46,1.3c1.31,1.74,2.4,3.7,3.58,5.53a14.22,14.22,0,0,1,1.73-4,6.84,6.84,0,0,1,4-2.37c-.73-1.49-1.53-2.94-2.2-4.46-.48-1.11-1-2.5.12-3.4a2.27,2.27,0,0,1,2.84-.08,13,13,0,0,1,3.51,2.75A27.67,27.67,0,0,1,123.19,49c.86,1.55,1.69,3.11,2.51,4.68,1.54,3,3.16,5.74,5,8.53a23,23,0,0,0,.87-3.12A7,7,0,0,1,133,56a7.61,7.61,0,0,1,6.11-3c1,.07,2.36.39,2.8,1.35.53,1.14-.74,2.51-1.24,3.44a32.16,32.16,0,0,0-3,8.27c-.33,1.47-.49,3-.87,4.44a26.52,26.52,0,0,1-1.57,4.23c-.63,1.41-1.33,2.78-2,4.18a11.18,11.18,0,0,0-1.33,3.77,2.4,2.4,0,0,0,.21,1.4c.33.49.89.79,1.2,1.33a9.16,9.16,0,0,1,.78,3.51A15.77,15.77,0,0,0,137,96.3c.39.51.85,1,1.29,1.42.29.31.57.62.85.94a2.6,2.6,0,0,0,.33.4c.31.24.08.23.44.13.9-.26,2-1.54,2.56-2.22a13.36,13.36,0,0,0,3-6.09,26.37,26.37,0,0,0,.41-5.54V34.84c0-4.13.07-8.25-1.15-12.26-2.21-7.22-8.05-11.83-15.13-13.92a55.27,55.27,0,0,0-15.74-1.81H7c-.29,0-.38,0-.49.11s0,1,0,1.31V197.06c0,.12-.08.75,0,.84s1,0,1.14,0h104c3,0,6,0,9-.21,7.7-.61,16.2-2.71,21.19-9.09,4.26-5.46,4.31-12.13,4.31-18.71a11.43,11.43,0,0,0,0-1.94c0-.07.05-.26,0-.33-.19-.31-1.36-.59-1.7-.74a73.18,73.18,0,0,1-21.25-14.4ZM84,149.76c0,1-2.22.6-2.81.6H69.88c-.16,0-1,.12-1.12,0s0-.21,0-.32a15.2,15.2,0,0,1,0-2.94V124.49a11.81,11.81,0,0,1,0-2.85c0-.13,0-.21,0-.28s1,0,1.17,0H81.31c.74,0,2.48-.34,2.66.59a9.63,9.63,0,0,1,0,1.86v25.95Zm0-67c0,1-2.22.6-2.81.6H69.88c-.17,0-1,.12-1.11,0s0-.15,0-.28a12.52,12.52,0,0,1,0-2.87V57.77a12,12,0,0,1,0-2.81c0-.13,0-.21,0-.28s1,0,1.17,0H81.16c.74,0,2.65-.36,2.81.6a10.46,10.46,0,0,1,0,1.77V82.79Z" transform="translate(-6.47 -6.81)"/><path d="M141.76,114c-.3.85.23,1.7.55,2.46.42,1,.83,2,1.25,3,.83,2,1.67,4,2.6,5.9,0-5.85.82-12.54-3.24-17.34A16.63,16.63,0,0,1,141.76,114Z" transform="translate(-6.47 -6.81)"/><path d="M269.93,6.85H162.51c-.82,0-1.11-.26-1.11.56V130.49c8.84-.76,17.33-4.07,25.94-6a76.19,76.19,0,0,1,12.74-1.88,59.65,59.65,0,0,1,6.55.09,10.51,10.51,0,0,0,3.87-.33c2.36-.75,3.37-3,3.95-5.2.33-1.24.26-2.73,1.13-3.74.59-.68,1.6-1.27,1.81-2.2.32-1.39-1.44-2.38-2.26-3.18-1.47-1.43-2.73-3.06-4.15-4.53a3.94,3.94,0,0,1-1.25-1.93,25.1,25.1,0,0,1-.27-3.47c-.12-2.25-.16-4.51-.39-6.76-.21-2-.7-3.9-.21-5.93.39-1.64,1.17-3.16,1.67-4.78a5.15,5.15,0,0,0-.69-4.9,16.17,16.17,0,0,1-2.6-5.42,17.27,17.27,0,0,1,1.29-11.09c.8-1.85,1.7-3.62,2.42-5.5A9.74,9.74,0,0,1,213.43,50c2.31-2.11,5.39-2.47,8.4-2.33,2.35.11,4.68.39,7,.7,2,.26,4.07.44,6.06.87a23.77,23.77,0,0,1,16.15,12.68A56.61,56.61,0,0,1,254.76,73c.52,2.11.86,4.25,1.18,6.4a42.16,42.16,0,0,0,1,6.25,5.25,5.25,0,0,0,1.51,1.87A6.5,6.5,0,0,1,259.88,90a10,10,0,0,1-.07,5.27c-.71,3-1.83,6.23-4,8.53a11.08,11.08,0,0,1-4.07,2.7c1.4,2.68,2.76,5.38,4.17,8,.65,1.25,1.32,2.49,2,3.72s.9,1.9,2.33,2c2.72.22,5.63-.61,8.3-1a33.51,33.51,0,0,1,8.66-.38c3,.31,5.89.8,8.8,1.36,1.4.27,2.8.56,4.19.86a3.26,3.26,0,0,0,1.75.19,7.29,7.29,0,0,0,1.51-1.1,19.49,19.49,0,0,0,6.52-9.81,38.69,38.69,0,0,0,1.08-11V52.23c0-7,0-14.07,0-21.11,0-5.82-1.41-11.73-5.46-16.1-4.79-5.17-12-7.15-18.82-7.84A67.21,67.21,0,0,0,269.93,6.85Z" transform="translate(-6.47 -6.81)"/><path d="M172.13,180.84a10,10,0,0,0-3.16-6c-2.15-1.79-4.91-2.14-7.57-2.65v24.9c0,.14-.08.64,0,.76s0,0,.24.08a5,5,0,0,0,1.45,0H175C174.36,192.14,173.27,186.52,172.13,180.84Z" transform="translate(-6.47 -6.81)"/><path d="M390.12,150.36H376.75c-.71,0-1.74.24-1.88-.65a15.71,15.71,0,0,1,0-2.17V124.13c-2.11,4-4.34,8-6.5,12a50.55,50.55,0,0,0-4.7,11.24,38.1,38.1,0,0,0-.89,6,10.59,10.59,0,0,1-1.2,4.19c-1.34,2.43-3.74,3.89-6.23,4.93-1.72.72-3.48,1.31-5.18,2.08-1,.45-2,.92-3,1.39l-1.58.75a3.77,3.77,0,0,0-.72.32c-.06.13.33.8.38.93q2.52,6.28,5,12.58,1.28,3.15,2.54,6.32a25.72,25.72,0,0,0,1.24,3.08c.27.48.39.38.95.44.4,0,.8.1,1.2.17,2.05.36,3.63,1.15,4.43,3.16a22.66,22.66,0,0,1,.94,3.62c.09.48,0,.44.24.55a4.1,4.1,0,0,0,1.26,0h88.27c.13,0,.78.1.88,0s0-1.5,0-1.77v-114c0-.2.11-.81,0-1s0,0-.3-.11a9.55,9.55,0,0,0-2,0H391c-.13,0-.74-.08-.84,0s0,.9,0,1v68.31Z" transform="translate(-6.47 -6.81)"/><path d="M421.21,6.85H352.4c-6,0-12.15-.25-18.12.67-5.6.88-11.31,2.78-15.45,6.8-3.81,3.71-5.63,8.8-6,14-.33,4.14-.11,8.36-.11,12.51v84.92c0,.61-.12.59.37.83a16.43,16.43,0,0,0,3.5.77c1.23.25,2.46.48,3.7.66a23.23,23.23,0,0,0,7-.23c4.34-.65,8.65-1.15,13-1.53-.5-1.1-.93-2.25-1.53-3.31a3.49,3.49,0,0,1-.67-3c.44-1.18,1.75-1.41,2.37-2.4a18.43,18.43,0,0,0,1.18-3.34c.21-.56.77-.9,1.19-1.32a16.83,16.83,0,0,0,1.4-1.64,19.75,19.75,0,0,0,2-3.35,73.74,73.74,0,0,0,2.74-7.63c1.51-4.5,3.74-8.69,8.59-10.16a11.67,11.67,0,0,1,1.75-.4c.55-.09,1.12,0,1.47-.44.83-1.13,1.08-2.83,1.73-4.08s1.7-2.15,1.81-3.53a6.94,6.94,0,0,0-1.15-3.52,90.18,90.18,0,0,1-3.49-9,6,6,0,0,0-1.79-2.75A12.33,12.33,0,0,0,354.32,65c-1.75-.68-3.79-2.17-3.08-4.32s3.81-2.33,5.71-1.77c2.63.78,4.33,3.56,7.05,4s4.07-2.39,5.21-4.29c1.8-3,3.58-5.94,5.41-8.88a55.36,55.36,0,0,1,5.67-8c.88-1,1.84-2.22,3.31-1.82a2.23,2.23,0,0,1,1.64,2.44,19.84,19.84,0,0,1-1.65,4.57c-.59,1.41-1.6,2.93-1.87,4.44a3.56,3.56,0,0,0,1.3,3.1c.42.37.69.27,1.29.27h4.45c.43,0,1.23-.15,1.33.39a2.73,2.73,0,0,1,2.28-1.43,2.39,2.39,0,0,1,2.12,1.68c.39,1.27-.37,2.43-.9,3.53-.72,1.48-1.37,3-2,4.5h57.71a10.86,10.86,0,0,0,2.79,0c.09,0,.22,0,.27,0s0-.86,0-1V56.94c0-8.75.09-17.5,0-26.24-.06-6.09-1.77-12.21-6.28-16.51-4.9-4.67-11.87-6.43-18.43-7C425.48,6.94,423.35,6.85,421.21,6.85Z" transform="translate(-6.47 -6.81)"/></svg>
